<svg width="121" height="36" viewBox="0 0 121 36" fill="none" xmlns="http://www.w3.org/2000/svg">
<path fill-rule="evenodd" clip-rule="evenodd" d="M25.496 16.3117C28.6803 20.5686 32.9832 22.8312 38.2167 23.3924C40.1305 23.5974 40.135 23.5549 40.1354 25.4553C40.1354 27.3772 40.0834 29.3008 40.1567 31.2194C40.1943 32.2018 39.8114 32.4066 38.9313 32.3473C31.9929 31.8771 25.9337 29.4069 20.9095 24.529C20.6271 24.2551 20.4154 23.801 19.8847 23.9199C19.537 23.7557 19.3537 23.4237 19.1017 23.1604C18.7428 22.6508 18.3581 22.1616 17.9603 21.6815C16.7964 20.034 15.6286 18.3884 14.7493 16.5627C11.9143 12.5217 7.89341 10.4359 3.15263 9.55832C2.19421 9.38113 0.877179 9.63774 0.338672 9.09064C-0.295841 8.44601 0.160307 7.12757 0.137012 6.1028C0.104774 4.69341 0.205134 3.27696 0.104774 1.87416C0.0245337 0.753732 0.37844 0.436888 1.49298 0.509951C8.31756 0.955393 14.2348 3.45944 19.2173 8.15505C19.5223 8.4426 19.844 8.71285 20.1579 8.99087C20.7219 9.17783 21.0937 9.5975 21.4443 10.0454C21.7039 10.4719 22.0419 10.8391 22.3468 11.2323C23.4889 12.8688 24.6841 14.4715 25.496 16.3117Z" fill="white"/>
<path fill-rule="evenodd" clip-rule="evenodd" d="M47.0877 16.1699C47.0877 13.0234 47.1144 9.87616 47.07 6.73053C47.0578 5.8806 47.2806 5.59693 48.1689 5.61776C50.7502 5.67858 53.3347 5.61058 55.9171 5.64529C61.0726 5.71458 63.886 10.5928 61.2998 15.0343C60.935 15.6605 61.0998 15.8756 61.5136 16.2734C63.4841 18.1668 63.9945 20.4738 62.9919 22.9641C61.9828 25.4701 59.9516 26.7065 57.2535 26.7382C54.2012 26.7734 51.1478 26.7201 48.0959 26.7647C47.2994 26.7765 47.0587 26.5561 47.0697 25.7503C47.1132 22.5569 47.0877 19.3633 47.0877 16.1699ZM97.6112 11.6558C98.7861 11.6558 99.9611 11.661 101.136 11.653C101.584 11.6502 102.089 11.6599 101.93 12.2811C101.663 13.3267 102.704 14.6592 101.211 15.4554C100.914 15.6131 101.277 15.951 101.37 16.1921C102.346 18.7295 102.168 21.1513 100.664 23.4466C100.449 23.7751 100.187 23.9809 100.552 24.5038C103.238 28.349 101.588 33.2844 97.0946 35.0093C92.5428 36.7568 87.3637 33.627 86.9379 28.9218C86.8616 28.0761 87.076 27.8291 87.8777 27.9111C88.3926 27.964 88.9116 27.9643 89.4266 27.9121C90.5322 27.7979 91.167 27.9961 91.6164 29.2828C92.3689 31.4374 95.5387 31.7554 96.9962 29.9983C97.9929 28.7965 97.6524 27.5302 96.2 27.0033C95.5689 26.7741 94.9192 26.7593 94.2587 26.7403C90.1708 26.6225 87.0167 23.4612 86.8715 19.3581C86.7345 15.4809 89.6855 12.1245 93.6695 11.7372C94.9717 11.6111 96.2963 11.7176 97.6108 11.7176C97.6109 11.6971 97.6109 11.676 97.6112 11.6558ZM120.601 26.7461C119.134 26.7461 117.692 26.7213 116.251 26.7576C115.634 26.7731 115.474 26.33 115.234 25.9453C114.166 24.2379 113.105 22.5263 111.899 20.5859C110.779 22.3846 109.69 24.0329 108.717 25.7477C108.259 26.554 107.721 26.8288 106.817 26.7671C105.617 26.6848 104.408 26.7468 102.996 26.7468C104.965 23.5826 106.805 20.5569 108.728 17.5837C109.231 16.8051 109.259 16.2773 108.739 15.4792C106.823 12.5354 105.004 9.52872 102.998 6.30227C104.692 6.30227 106.205 6.29286 107.719 6.30745C108.24 6.31263 108.359 6.80407 108.574 7.14221C109.676 8.87598 110.76 10.6206 111.902 12.4436C113.042 10.616 114.143 8.93409 115.147 7.19668C115.559 6.48593 116.038 6.23698 116.836 6.27968C118.045 6.34404 119.259 6.29662 120.446 6.29662C120.702 6.82184 120.314 7.07174 120.138 7.35611C118.467 10.0685 116.81 12.7912 115.067 15.4568C114.557 16.2355 114.531 16.7781 115.044 17.5628C116.736 20.1512 118.348 22.7916 119.973 25.4224C120.21 25.8045 120.58 26.1335 120.601 26.7461ZM71.7686 19.2522C71.7686 17.1392 71.8486 15.0214 71.7366 12.9141C71.6762 11.7795 72.0894 11.4801 73.0785 11.6592C74.1723 11.8574 75.399 11.152 76.3923 12.1636C76.4895 12.2627 76.9062 12.0547 77.1717 11.9792C81.3236 10.8032 85.3979 12.8971 85.1852 18.1012C85.0839 20.5863 85.1387 23.0792 85.1838 25.5676C85.1993 26.4181 85.0655 26.7847 84.0606 26.7769C80.7943 26.7509 80.7938 26.8016 80.7938 23.5288C80.7938 21.6977 80.805 19.8658 80.7906 18.0343C80.7777 16.4014 79.9273 15.3856 78.5637 15.3301C77.1548 15.2725 76.1817 16.2986 76.1536 18.0095C76.1121 20.5451 76.1193 23.0817 76.1565 25.6171C76.1675 26.3907 76.0903 26.7716 75.1265 26.776C71.7683 26.7919 71.7685 26.8385 71.7685 23.4792L71.7686 19.2522Z" fill="white"/>
<path fill-rule="evenodd" clip-rule="evenodd" d="M26.0253 4.44142C30.0273 1.86643 34.456 0.728 39.1659 0.51022C39.8692 0.477983 40.1655 0.667759 40.1511 1.43816C40.1068 3.7815 40.1235 6.12613 40.1433 8.4704C40.1482 9.0482 39.9835 9.2981 39.3558 9.31857C36.8981 9.39787 34.5626 10.0517 32.2815 10.9275C31.5861 10.3389 31.2314 9.49917 30.7133 8.78007C29.7355 7.42433 28.472 6.3952 27.0923 5.48879C26.6672 5.20936 26.1562 5.01934 26.0253 4.44142ZM14.0341 28.4848C10.072 31.0465 5.64087 32.0231 1.01338 32.3492C0.34781 32.3958 0.108264 32.165 0.117206 31.4838C0.148855 29.1407 0.152385 26.7966 0.115206 24.4537C0.103794 23.7391 0.301689 23.4719 1.05339 23.466C3.4759 23.4461 5.75982 22.7651 7.9855 21.8602C8.69766 22.1724 8.86685 22.9197 9.26252 23.4798C10.2924 24.9369 11.3696 26.3336 12.9318 27.2801C13.4024 27.5653 13.8952 27.8751 14.0341 28.4848Z" fill="white"/>
<path fill-rule="evenodd" clip-rule="evenodd" d="M65.4197 19.1353C65.4197 16.9797 65.4522 14.8233 65.4025 12.6685C65.3842 11.8615 65.6505 11.6535 66.4403 11.6365C69.7951 11.5646 69.7944 11.5372 69.7944 14.9429C69.7944 18.5045 69.7604 22.0665 69.818 25.6273C69.833 26.5548 69.5712 26.7795 68.6631 26.7733C65.4199 26.7505 65.4197 26.7872 65.4197 23.4939V19.1353Z" fill="white"/>
<path fill-rule="evenodd" clip-rule="evenodd" d="M14.034 28.4853C11.3859 26.8543 9.26697 24.7397 7.98535 21.8606L9.13107 21.3189C10.1496 22.5684 10.8993 24.0172 12.0992 25.1395C13.1205 26.0943 14.3848 26.7001 15.4208 27.6206C15.0498 28.0548 14.5653 28.3074 14.034 28.4853ZM26.0251 4.44189C28.3146 5.75622 30.3808 7.30844 31.7149 9.66789C31.9451 10.0749 32.2339 10.4437 32.2812 10.928C31.9039 11.1187 31.5267 11.3092 31.1496 11.4995C29.7907 9.22245 28.087 7.28244 25.7664 5.93C25.4252 5.73186 24.9923 5.51279 25.1994 4.95969C25.4077 4.68026 25.6777 4.49966 26.0251 4.44189Z" fill="white"/>
<path fill-rule="evenodd" clip-rule="evenodd" d="M22.7283 6.73713C22.9088 6.4404 23.1723 6.25145 23.4989 6.14462C23.9233 5.89119 24.367 5.83272 24.829 6.02767C27.2215 7.03515 29.0865 8.62808 30.2658 10.9681C30.4296 11.2936 30.5961 11.6503 30.3057 12.0077C30.0236 12.1923 29.7412 12.3775 29.4594 12.5619C28.9385 12.2713 28.7597 11.705 28.4184 11.2698C27.2281 9.75004 25.9087 8.39536 24.0732 7.63507C23.581 7.43106 22.9566 7.36152 22.7283 6.73713Z" fill="white"/>
<path fill-rule="evenodd" clip-rule="evenodd" d="M30.3056 12.0083C29.0339 8.89612 26.9205 6.76116 23.4988 6.14524C24.0018 5.65873 24.5028 5.16929 25.1995 4.96045C26.6913 6.20759 28.4013 7.19695 29.6445 8.73811C30.3149 9.56923 31.1226 10.3209 31.1496 11.5003L30.3056 12.0083Z" fill="white"/>
<path fill-rule="evenodd" clip-rule="evenodd" d="M21.2712 10.1196C20.806 9.83569 20.4282 9.4659 20.158 8.99034C20.4232 8.7668 20.6885 8.54302 20.9537 8.31982C23.8529 8.59867 26.0001 10.0576 27.5017 12.5132C27.7429 12.9073 27.9881 13.3213 27.7924 13.8223C27.6017 14.1961 27.2837 14.4331 26.9266 14.6277C26.5174 14.5241 26.3561 14.1768 26.1822 13.8516C25.1157 11.8549 23.5422 10.5294 21.2712 10.1196Z" fill="white"/>
<path fill-rule="evenodd" clip-rule="evenodd" d="M17.3625 26.1946C17.1881 26.5008 16.928 26.6944 16.5885 26.7833C16.2772 26.8806 15.9792 26.9965 15.6314 26.923C13.2325 26.4155 10.4193 23.3759 9.99805 20.8194C10.209 20.5238 10.508 20.3614 10.8445 20.2549C11.3163 20.3395 11.5439 20.706 11.7551 21.0721C12.8932 23.0461 14.4623 24.5411 16.5634 25.4598C16.9071 25.6101 17.2512 25.782 17.3625 26.1946Z" fill="white"/>
<path fill-rule="evenodd" clip-rule="evenodd" d="M9.99823 20.8198C10.3704 21.4692 10.7512 22.1136 11.1131 22.7685C12.3191 24.9539 14.2175 26.1904 16.5887 26.7838C16.2762 27.1697 15.9009 27.4676 15.4209 27.6192C12.4053 26.4353 10.2913 24.3524 9.13135 21.3175C9.42031 21.1513 9.70927 20.9855 9.99823 20.8198Z" fill="white"/>
<path fill-rule="evenodd" clip-rule="evenodd" d="M19.3161 23.0711C19.6817 23.2364 19.869 23.521 19.8843 23.921C19.6719 24.1066 19.4593 24.2926 19.2465 24.4786C16.923 24.6314 15.2589 23.3996 13.8929 21.7514C13.2293 20.9508 12.2662 20.1802 12.5515 18.8888C12.7965 18.673 13.0418 18.457 13.287 18.2408C14.011 18.1055 14.1215 18.739 14.3171 19.1488C15.34 21.2927 17.1077 22.4552 19.3161 23.0711Z" fill="white"/>
<path fill-rule="evenodd" clip-rule="evenodd" d="M22.7282 6.73779C25.7422 7.7888 28.1704 9.51763 29.4593 12.5625C29.1743 12.7691 28.8895 12.9763 28.605 13.1828C28.1421 13.0674 27.9733 12.661 27.7607 12.309C26.4493 10.1348 24.6347 8.65475 22.0922 8.16624C21.8612 8.12189 21.647 8.03647 21.5044 7.83116C21.819 7.36219 22.2214 6.99205 22.7282 6.73779Z" fill="white"/>
<path fill-rule="evenodd" clip-rule="evenodd" d="M21.5044 7.83057C25.0605 8.03634 27.1385 10.2036 28.605 13.1821C28.334 13.3958 28.0633 13.6101 27.7924 13.8239C26.5964 11.093 24.5554 9.37479 21.6438 8.71169C21.3631 8.64756 21.0974 8.60603 20.9539 8.32154C21.0585 8.06941 21.2354 7.89822 21.5044 7.83057Z" fill="white"/>
<path fill-rule="evenodd" clip-rule="evenodd" d="M12.5516 18.8877C13.7646 21.971 16.0413 23.7804 19.2467 24.4775C19.1118 24.8988 18.7607 25.108 18.4153 25.3224C17.5589 25.7345 16.8874 25.1814 16.1905 24.8642C14.4319 24.0649 13.0547 22.8347 12.1591 21.1031C11.8811 20.566 11.5421 20.0219 11.9697 19.4002C12.1637 19.2297 12.3574 19.0588 12.5516 18.8877Z" fill="white"/>
<path fill-rule="evenodd" clip-rule="evenodd" d="M11.9695 19.4004C12.546 22.3559 14.6877 23.8466 17.2073 24.9709C17.5868 25.1398 18.0114 25.2075 18.4151 25.3224C18.1452 25.711 17.7838 25.9888 17.3627 26.195C14.3548 25.1319 12.3027 23.0197 10.8447 20.2553L11.9695 19.4004Z" fill="white"/>
<path fill-rule="evenodd" clip-rule="evenodd" d="M19.3161 23.0702C17.8168 23.4489 16.8838 22.3704 15.8086 21.6864C14.5274 20.8714 14.2696 19.2862 13.2869 18.2399C13.6396 17.7343 13.9946 17.2302 14.5118 16.8711C15.0957 18.1639 15.2929 19.6546 16.567 20.5886C17.0931 20.9747 17.5601 21.4339 18.1897 21.6587C18.7825 21.9558 19.0387 22.5214 19.3161 23.0702Z" fill="white"/>
<path fill-rule="evenodd" clip-rule="evenodd" d="M21.2712 10.1196C22.6162 9.59642 23.5197 10.4946 24.4397 11.1761C25.6198 12.0498 26.3725 13.2789 26.9267 14.6277C26.7183 14.9894 26.4781 15.3205 26.0959 15.5201C25.5835 15.2077 25.4247 14.6477 25.191 14.1585C24.5345 12.7857 23.2694 12.0752 22.1151 11.2392C21.6781 10.9831 21.3089 10.6764 21.2712 10.1196Z" fill="white"/>
<path fill-rule="evenodd" clip-rule="evenodd" d="M18.1897 21.658C17.8424 22.1337 17.4709 21.7883 17.2306 21.5969C15.7102 20.3846 14.3383 19.0653 14.512 16.8704C14.591 16.7675 14.6703 16.6649 14.7495 16.5615C16.217 18.0435 17.0744 19.9379 18.1897 21.658Z" fill="white"/>
<path fill-rule="evenodd" clip-rule="evenodd" d="M22.115 11.2402C24.4273 11.7507 25.4327 13.4769 26.0958 15.5211L25.4959 16.3123C24.1077 14.7959 23.1995 12.9588 22.115 11.2402Z" fill="white"/>
<path fill-rule="evenodd" clip-rule="evenodd" d="M69.7964 7.89306C69.7964 10.0657 69.7964 10.0657 67.1594 10.0652C65.4157 10.065 65.4157 10.065 65.4165 7.39023C65.4172 5.63831 65.4172 5.63831 68.2247 5.63973C69.7964 5.64043 69.7964 5.64043 69.7964 7.89306Z" fill="white"/>
<path fill-rule="evenodd" clip-rule="evenodd" d="M51.4609 11.8041C51.4609 9.30863 51.4609 9.30816 53.9128 9.30911C54.5219 9.30934 55.1354 9.26581 55.7384 9.32522C57.1718 9.46664 58.1479 10.5978 58.0853 11.9812C58.0248 13.3121 57.0441 14.2812 55.6329 14.3733C55.1195 14.4066 54.6029 14.3847 54.0877 14.385C51.4609 14.3854 51.4609 14.385 51.4609 11.8041ZM94.3745 22.368C92.7188 22.347 91.2342 20.8436 91.238 19.1914C91.2415 17.4871 92.8196 15.9732 94.5288 16.0338C96.2055 16.093 97.6101 17.5894 97.5726 19.2755C97.535 20.9598 96.0567 22.389 94.3745 22.368Z" fill="#181818"/>
<path fill-rule="evenodd" clip-rule="evenodd" d="M54.5223 23.0798C51.4609 23.0798 51.4609 23.0798 51.4609 20.082C51.4609 18.0031 51.4609 18.0019 53.6105 18.0035C54.6433 18.004 55.6784 17.9617 56.7079 18.0231C58.2348 18.1141 59.3139 19.2797 59.2428 20.6684C59.1716 22.058 58.1308 23.0292 56.6348 23.076C55.9315 23.0979 55.2265 23.0798 54.5223 23.0798Z" fill="#181818"/>
</svg>
