<svg width="13" height="17" viewBox="0 0 13 17" fill="none" xmlns="http://www.w3.org/2000/svg">
<path fill-rule="evenodd" clip-rule="evenodd" d="M6.59922 0.75C4.39008 0.75 2.59922 2.54086 2.59922 4.75V6.35H0.799219C0.467848 6.35 0.199219 6.61863 0.199219 6.95V16.15C0.199219 16.4814 0.467848 16.75 0.799219 16.75H12.3992C12.7306 16.75 12.9992 16.4814 12.9992 16.15V6.95C12.9992 6.61863 12.7306 6.35 12.3992 6.35H10.5992V4.75C10.5992 2.54086 8.80836 0.75 6.59922 0.75ZM9.39922 6.35V4.75C9.39922 3.2036 8.14562 1.95 6.59922 1.95C5.05282 1.95 3.79922 3.2036 3.79922 4.75V6.35H9.39922ZM6.59922 9.75C6.93059 9.75 7.19922 10.0186 7.19922 10.35V12.75C7.19922 13.0814 6.93059 13.35 6.59922 13.35C6.26785 13.35 5.99922 13.0814 5.99922 12.75V10.35C5.99922 10.0186 6.26785 9.75 6.59922 9.75Z" fill="white"/>
</svg>
