<svg width="287" height="40" fill="none" xmlns="http://www.w3.org/2000/svg"><path d="M43.185 20.51c0-6.497 5.541-11.847 12.356-11.847 6.816 0 12.42 5.35 12.42 11.847 0 6.56-5.605 11.91-12.42 11.91-6.815 0-12.356-5.286-12.356-11.91Zm6.05 0c0 3.758 2.676 6.496 6.243 6.496 3.503 0 6.242-2.802 6.242-6.496 0-3.63-2.74-6.433-6.242-6.433-3.44 0-6.242 2.802-6.242 6.433ZM78.153 21.783v10.064h-6.178V9.044h6.178v3.058c2.293-3.058 6.178-3.503 7.77-3.44v6.051c-1.464-.127-7.77.191-7.77 7.07ZM106.051 29.618c-.955 1.274-3.694 2.803-6.942 2.803-7.198 0-11.465-5.35-11.465-11.911 0-6.56 4.203-11.911 11.465-11.911 3.312 0 5.732 1.338 6.942 2.866V.51h6.115v31.337h-6.115v-2.229ZM100 14.013c-3.949 0-6.242 2.739-6.242 6.433 0 3.63 2.42 6.433 6.242 6.433 3.886 0 6.242-2.42 6.242-6.433.064-3.758-2.356-6.433-6.242-6.433ZM120.764 6.688c-1.911 0-3.503-1.465-3.503-3.376 0-1.847 1.592-3.312 3.503-3.312 1.847 0 3.376 1.465 3.376 3.312.063 1.847-1.465 3.376-3.376 3.376Zm-3.121 2.42h6.242v22.74h-6.242V9.107ZM150.318 18.408v13.44h-6.37v-13.44c0-3.503-1.974-4.586-4.395-4.586-1.719 0-4.458 1.019-4.331 5.987v12.038h-6.178V9.045h6.178v2.038c1.529-1.529 4.077-2.42 6.115-2.42 6.56 0 8.981 3.821 8.981 9.745ZM172.739 29.618c-.956 1.274-3.695 2.802-6.943 2.802-7.197 0-11.465-5.35-11.465-11.91 0-6.561 4.204-11.911 11.465-11.911 3.312 0 5.733 1.337 6.943 2.866V9.108h6.114v22.739h-6.114v-2.23Zm-5.988-15.605c-3.949 0-6.242 2.739-6.242 6.433 0 3.63 2.421 6.433 6.242 6.433 3.886 0 6.242-2.42 6.242-6.433 0-3.758-2.42-6.433-6.242-6.433ZM184.14.51h6.242v31.337h-6.242V.51ZM194.076 28.853l3.249-4.33c1.783 1.21 4.649 2.42 7.388 2.42 1.911 0 3.249-.892 3.249-2.039 0-1.528-3.185-1.72-4.395-1.91-3.121-.51-9.045-1.465-9.045-7.198 0-6.688 7.197-7.197 9.427-7.197 3.63 0 6.497 1.019 9.49 3.248l-3.248 4.204c-1.72-1.02-3.949-2.102-6.497-2.102-1.21 0-2.994.573-2.994 1.72 0 1.528 3.312 1.91 4.332 2.038 3.885.637 9.044 1.337 9.044 7.197 0 4.714-3.376 7.389-9.363 7.389-4.841.127-8.153-1.465-10.637-3.44ZM218.152 31.847V.51h6.115v10.955c1.146-1.528 3.631-2.866 6.943-2.866 7.197 0 11.465 5.35 11.465 11.91 0 6.561-4.204 11.912-11.465 11.912-3.249 0-5.988-1.465-6.943-2.803v2.23h-6.115Zm12.166-4.968c3.822 0 6.242-2.802 6.242-6.433 0-3.758-2.293-6.433-6.242-6.433-3.885 0-6.242 2.675-6.242 6.433 0 4.013 2.357 6.433 6.242 6.433Zm15.414-6.37c0-6.496 5.541-11.846 12.357-11.846 6.815 0 12.42 5.35 12.42 11.847 0 6.56-5.605 11.91-12.42 11.91-6.816 0-12.357-5.286-12.357-11.91Zm6.115 0c0 3.759 2.675 6.498 6.242 6.498 3.503 0 6.242-2.803 6.242-6.497 0-3.63-2.739-6.433-6.242-6.433-3.504 0-6.242 2.802-6.242 6.433Zm30.445 3.25c0 1.273.064 3.375 2.803 3.375.701 0 1.21-.064 1.592-.064v5.223c-.764.064-1.91.191-2.802.191-4.777 0-7.771-.891-7.771-5.669V14.14h-2.802V8.726h2.802V2.612h6.115v6.114h4.586v5.414h-4.586v9.618h.063ZM29.872 22.23c1.784 23.63-31.528 23.63-29.809 0 0-.574.446-1.02 1.02-1.02h27.77c.573.064 1.02.51 1.02 1.02ZM25.796 3.566v11.72a3.154 3.154 0 0 1-3.185 3.184H7.325c-1.784 0-3.185-1.465-3.185-3.184V3.566A3.262 3.262 0 0 1 7.388.318h15.223c1.784 0 3.185 1.465 3.185 3.249ZM13.694 9.236c0-1.593-1.338-2.867-2.93-2.867S7.962 7.643 7.898 9.236c0 1.592 1.337 2.866 2.93 2.866a2.854 2.854 0 0 0 2.866-2.866Zm8.344 0c0-1.593-1.338-2.867-2.93-2.867s-2.803 1.274-2.866 2.867c0 1.592 1.337 2.866 2.93 2.866 1.528 0 2.802-1.274 2.866-2.866Zm-2.93-.892c-.51 0-.892.446-.828.892 0 .445.382.828.828.828.51 0 .892-.446.828-.892 0-.446-.382-.764-.828-.828Zm-8.28 0c-.51 0-.892.446-.828.892 0 .445.382.828.828.828.51 0 .892-.446.828-.892 0-.446-.382-.764-.828-.828Z" fill="#fff"/></svg>